<?xml version="1.0" standalone="no"?>
<!DOCTYPE svg PUBLIC "-//W3C//DTD SVG 20010904//EN"
 "http://www.w3.org/TR/2001/REC-SVG-20010904/DTD/svg10.dtd">
<svg version="1.0" xmlns="http://www.w3.org/2000/svg"
 width="128.000000pt" height="128.000000pt" viewBox="0 0 128.000000 128.000000"
 preserveAspectRatio="xMidYMid meet">

<style>
    path {
        fill: black;
    }
    @media (prefers-color-scheme: dark) {
        path {
            fill: white;
        }
    }
</style>
<g transform="translate(0.000000,128.000000) scale(0.100000,-0.100000)"
fill="#000000" stroke="none">
<path d="M0 640 l0 -640 640 0 640 0 0 640 0 640 -640 0 -640 0 0 -640z m1255
0 l0 -615 -615 0 -615 0 -3 605 c-1 333 0 611 3 618 3 10 132 12 617 10 l613
-3 0 -615z"/>
<path d="M462 1149 c-47 -24 -92 -80 -92 -116 0 -21 -5 -23 -54 -23 -68 0
-102 -12 -144 -53 -32 -31 -52 -79 -52 -125 0 -22 4 -20 51 22 29 26 53 45 55
43 2 -2 -8 -25 -21 -52 -34 -67 -33 -128 2 -183 l28 -43 12 71 c7 39 21 86 32
103 11 18 21 28 21 22 1 -45 23 -133 41 -162 21 -34 84 -72 121 -73 15 0 12
11 -19 67 -32 58 -37 77 -41 150 -5 101 5 106 73 39 71 -71 94 -176 110 -499
6 -124 6 -127 -14 -127 -18 0 -21 6 -21 41 l0 41 -107 -4 c-110 -4 -156 -17
-177 -50 -16 -27 18 -56 98 -81 64 -20 92 -22 281 -22 171 0 220 3 266 17 160
50 135 138 -38 138 l-73 0 0 58 c0 102 48 263 109 366 28 48 29 48 41 26 17
-32 6 -94 -24 -141 -29 -44 -19 -51 34 -24 36 19 52 47 60 105 l5 45 19 -28
c13 -19 19 -46 19 -83 l0 -56 25 25 c38 38 42 110 8 160 -23 34 -24 37 -6 37
22 0 50 -36 50 -63 0 -10 5 -15 10 -12 6 3 10 23 10 44 0 63 -61 121 -127 121
-22 0 -33 8 -46 33 -10 18 -31 41 -47 50 -53 32 -167 15 -183 -28 -5 -12 3
-15 41 -15 75 0 91 -19 30 -34 -35 -8 -60 -45 -68 -102 -6 -42 4 -61 16 -29 9
23 68 55 103 55 l32 0 -30 -32 c-70 -75 -124 -239 -141 -431 -5 -56 -9 -108
-10 -114 0 -8 -13 -13 -30 -13 l-30 0 0 93 c0 253 -61 474 -162 583 l-41 44
47 0 c79 0 122 -27 189 -120 18 -25 18 -24 13 44 -9 109 -55 165 -144 176
l-47 5 27 28 c24 24 34 27 94 27 l67 0 -24 26 c-13 14 -36 32 -51 40 -41 21
-126 18 -176 -7z"/>
</g>
</svg>
